<svg xmlns="http://www.w3.org/2000/svg" xmlns:xlink="http://www.w3.org/1999/xlink" viewBox="0 0 32.141 32.141"><defs><style>.a{clip-path:url(#a);}.b{fill:url(#b);}.c{clip-path:url(#c);}.d{fill:#fff;}</style><clipPath id="a"><path d="M6.59,0A6.6,6.6,0,0,0,0,6.59V25.551a6.6,6.6,0,0,0,6.59,6.589H25.551A6.605,6.605,0,0,0,32.141,25.6V6.545A6.605,6.605,0,0,0,25.551,0Z"/></clipPath><linearGradient id="b" x1="4.277" y1="10.449" x2="4.286" y2="10.449" gradientUnits="objectBoundingBox"><stop offset="0" stop-color="#00b70c"/><stop offset="0.002" stop-color="#00b70c"/><stop offset="0.952" stop-color="#00d50c"/><stop offset="1" stop-color="#00d50c"/></linearGradient><clipPath id="c"><rect width="32.141" height="32.141"/></clipPath></defs><g class="a"><rect class="b" width="32.141" height="32.141"/></g><g class="c"><path class="d" d="M70.345,61.791A1.053,1.053,0,1,1,71.4,60.738a1.052,1.052,0,0,1-1.053,1.053m-5.222,0a1.053,1.053,0,1,1,1.053-1.053,1.082,1.082,0,0,1-1.053,1.053M72.877,67.8a6.178,6.178,0,0,0,2.712-4.953c0-3.609-3.519-6.545-7.845-6.545S59.9,59.236,59.9,62.845s3.519,6.545,7.845,6.545a9.382,9.382,0,0,0,2.555-.359.8.8,0,0,1,.224-.045.927.927,0,0,1,.426.112l1.726.986a.324.324,0,0,0,.157.045.273.273,0,0,0,.269-.269.655.655,0,0,0-.045-.2c0-.045-.224-.829-.359-1.322a.381.381,0,0,1-.022-.157.417.417,0,0,1,.2-.381" transform="translate(-46.474 -43.681)"/></g><g class="c"><path class="d" d="M26.151,30.69a1.255,1.255,0,1,1,1.255-1.255,1.253,1.253,0,0,1-1.255,1.255m-6.276,0a1.255,1.255,0,1,1,1.255-1.255,1.253,1.253,0,0,1-1.255,1.255m3.138-6.59c-5.2,0-9.414,3.519-9.414,7.845a7.41,7.41,0,0,0,3.25,5.94.625.625,0,0,1,.269.516c0,.067-.022.134-.022.2-.157.583-.4,1.547-.426,1.591a.8.8,0,0,0-.045.224.306.306,0,0,0,.314.314.254.254,0,0,0,.179-.067l2.062-1.188a.96.96,0,0,1,.493-.134,1.125,1.125,0,0,1,.269.045,11.417,11.417,0,0,0,3.071.426,3.968,3.968,0,0,0,.516-.022,6.1,6.1,0,0,1-.314-1.928c0-3.945,3.855-7.172,8.584-7.172a3.968,3.968,0,0,1,.516.022c-.695-3.743-4.595-6.612-9.3-6.612" transform="translate(-10.552 -18.698)"/></g></svg>