<?xml version="1.0" encoding="UTF-8"?>
<svg width="120px" height="800px" viewBox="0 0 120 800" version="1.1" xmlns="http://www.w3.org/2000/svg" xmlns:xlink="http://www.w3.org/1999/xlink">
    <polygon id="Shape" fill="#FFFFFF" points="14.7 0 6.1 8.6 2.1 4.6 0 6.7 6.1 12.8 8.2 10.7 16.8 2.1"></polygon>
    <polygon id="Shape" fill="#666666" points="34.7 0 26.1 8.6 22.1 4.6 20 6.7 26.1 12.8 28.2 10.7 36.8 2.1"></polygon>
    <polygon id="Shape" fill="#FFFFFF" points="6.8 27.7 0 21 0 34.5"></polygon>
    <polygon id="Shape" fill="#FFFFFF" points="1 47.7 7.7 41 7.7 54.5"></polygon>
    <path d="M7.5,67.2 C8.4,66.5 9,65.2 9,63.8 C9,61.7 7.7,60 6,60 C4.3,60 3,61.7 3,63.7 C3,65.1 3.6,66.5 4.5,67.2 C1.9,68 0,70.7 0,74.7 C0,76.7 12,76.7 12,74.7 C12,70.7 10.1,68 7.5,67.2 Z" id="Shape" fill="#FFFFFF"></path>
    <path d="M15.5,91.1 C14.6,91.1 13.8,91.5 13.2,92.1 L6.2,89 C6.2,88.9 6.2,88.8 6.2,88.7 C6.2,88.6 6.2,88.5 6.2,88.4 L13.2,85.3 C13.8,85.9 14.6,86.3 15.5,86.3 C17.2,86.3 18.6,84.9 18.6,83.2 C18.6,81.5 17.2,80 15.5,80 C13.8,80 12.4,81.4 12.4,83.1 C12.4,83.2 12.4,83.3 12.4,83.4 L5.4,86.5 C4.8,86 4,85.6 3.1,85.6 C1.4,85.6 0,87 0,88.7 C0,90.4 1.4,91.8 3.1,91.8 C4,91.8 4.8,91.4 5.4,90.8 L12.4,93.9 C12.4,94 12.4,94.1 12.4,94.2 C12.4,95.9 13.8,97.3 15.5,97.3 C17.2,97.3 18.6,95.9 18.6,94.2 C18.6,92.5 17.2,91.1 15.5,91.1 Z" id="Shape" fill="#FFFFFF"></path>
    <polygon id="Shape" fill="#FFFFFF" points="4.431981 106.553301 0 102.12132 2.12132 100 6.553301 104.431981 10.985281 100 13.106602 102.12132 8.674621 106.553301 13.106602 110.985281 10.985281 113.106602 6.553301 108.674621 2.12132 113.106602 0 110.985281"></polygon>
</svg>