<?xml version="1.0" encoding="utf-8"?>
<!-- Generator: Adobe Illustrator 24.1.3, SVG Export Plug-In . SVG Version: 6.00 Build 0)  -->
<svg version="1.1" id="Layer_1" xmlns="http://www.w3.org/2000/svg" xmlns:xlink="http://www.w3.org/1999/xlink" x="0px" y="0px"
	 viewBox="0 0 23 36" style="enable-background:new 0 0 23 36;" xml:space="preserve">
<path d="M13.8,21.6L12,23.4c-2.2-0.6-4.4,0.7-5,2.8c-0.2,0.7-0.2,1.4,0,2.1l-2.8,2.8c-1.3-1-2.5-2.3-3.2-3.8
	C3.4,22.6,8.7,20.3,13.8,21.6L13.8,21.6z M17.7,23.4c1.4,1,2.5,2.3,3.3,3.8c-2.4,4.6-7.8,7-12.9,5.6L9.9,31c2.2,0.6,4.4-0.7,5-2.8
	c0.2-0.7,0.2-1.4,0-2.1L17.7,23.4L17.7,23.4z M17.5,19.4l1.4,1.4L4.5,34.9l-1.4-1.4L17.5,19.4z"/>
<path d="M1,9c2.8-5.4,9.6-7.6,15.1-4.8C18.2,5.3,19.9,6.9,21,9c-2.8,5.4-9.6,7.6-15.1,4.8C3.8,12.8,2.1,11.1,1,9z M11,13
	c2.3,0,4.1-1.8,4.1-4S13.3,5,11,5S6.9,6.8,6.9,9S8.7,13,11,13z M11,11c-1.1,0-2-0.9-2-2s0.9-2,2-2s2,0.9,2,2C13,10.1,12.1,11,11,11z
	"/>
</svg>
