<?xml version="1.0" encoding="UTF-8"?>
<svg width="90px" height="480px" viewBox="0 0 90 480" version="1.1" xmlns="http://www.w3.org/2000/svg" xmlns:xlink="http://www.w3.org/1999/xlink">
    <g id="Artboard" fill="#707070" fill-rule="nonzero">
        <path d="M6,36 L6,32 C6.0032948,30.8967981 6.89679813,30.0032948 8,30 L18,30 C19.1045695,30 20,30.8954305 20,32 L20,42 C20,43.1045695 19.1045695,44 18,44 L14,44 L14,48 C14,49.1045695 13.1045695,50 12,50 L2,50 C0.8954305,50 1.3527075e-16,49.1045695 0,48 L0,38 C0.00329480111,36.8967981 0.896798134,36.0032948 2,36 L6,36 Z M8,36 L12,36 C13.1045695,36 14,36.8954305 14,38 L14,42 L18,42 L18,32 L8,32 L8,36 Z M2,38 L2,48 L12,48 L12,38 L2,38 Z M6,42 L6,40 L8,40 L8,42 L10,42 L10,44 L8,44 L8,46 L6,46 L6,44 L4,44 L4,42 L6,42 Z" id="Shape"></path>
        <polygon id="Shape" points="10.031 1.693 8.344 0 0 8.359 0 8.359 8.344 16.718 10.032 15.025 3.381 8.358"></polygon>
        <path d="M4,62 L6,60 L10,60 L12,62 L16,62 L16,64 L0,64 L0,62 L4,62 Z M1,66 L15,66 L14,80 L2,80 L1,66 Z M6,68 L6,78 L7,78 L7,68 L6,68 Z M9,68 L9,78 L10,78 L10,68 L9,68 Z" id="Shape"></path>
        <path d="M12.1,93.639 L16.034,97.573 L3.934,109.673 L0,109.673 L0,105.737 L12.1,93.639 Z M13.477,92.262 L15.737,90 L19.671,93.934 L17.41,96.2 L13.477,92.262 Z" id="Shape"></path>
 		<path d="M4.286,18A4.29,4.29,0,0,1,0,13.714V6.857A4.291,4.291,0,0,1,4.286,2.571H7.714V4.286H4.286A2.571,2.571,0,0,0,1.714,6.857v6.857a2.571,2.571,0,0,0,2.571,2.571h6.857a2.571,2.571,0,0,0,2.571-2.571V10.286h1.714v3.429A4.29,4.29,0,0,1,11.143,18ZM8.823,7.965l6.251-6.251H10.286V0H18V7.714H16.286V2.926L10.035,9.178Z" transform="translate(0 121)" fill="#707070"/>
	</g>
</svg>
